<?xml version="1.0" encoding="utf-8"?>
<!-- Generator: Adobe Illustrator 25.2.1, SVG Export Plug-In . SVG Version: 6.00 Build 0)  -->
<svg version="1.1" id="Layer_1" xmlns="http://www.w3.org/2000/svg" xmlns:xlink="http://www.w3.org/1999/xlink" x="0px" y="0px"
	 viewBox="0 0 659.9 140.9" style="enable-background:new 0 0 659.9 140.9;" xml:space="preserve">
<style type="text/css">
	.st0{fill:#FCFAFA;}
	.st1{fill:#F9F7F7;}
	.st2{fill:#FFFFFF;}
	.st3{fill:#FCFCFC;}
	.st4{fill:#F9F9F9;}
	.st5{fill:none;}
</style>
<g>
	<polygon class="st0" points="618,4 618,78.5 567.3,4 528.5,4 528.5,138.6 567.6,138.6 567.6,64.7 618,138.6 657.2,138.6 657.2,4 	
		"/>
	<rect x="150.8" y="2" class="st1" width="43.7" height="136.6"/>
	<polygon class="st2" points="354.1,2 306.4,2 283.8,42.4 260.5,2 212.3,2 255.2,67.5 208.1,138.6 256.9,138.6 283,96.3 309,138.6 
		358.1,138.6 311.6,68.2 	"/>
</g>
<g>
	<path d="M370.1,131.1L370.1,131.1z"/>
</g>
<g>
	<path class="st0" d="M451.2,101.8l-11.9,35.9c-3.3,0.5-6.6,0.7-10,0.7c-26,0-48.5-14.8-59.7-36.4l80.1-0.2
		C449.7,101.8,451.2,101.8,451.2,101.8z"/>
</g>
<g>
	<path class="st0" d="M497.6,81.4c-4.4,29-27.3,51.9-56.4,56.3l11.9-35.9h0.2L467,59.7"/>
	<path d="M431.3,33.6"/>
</g>
<g>
	<path class="st3" d="M460.6,8.4c21.8,11.1,36.8,33.7,36.8,59.8c0,3.4-0.3,6.8-0.8,10.1l-66.4-47.8"/>
	<path d="M394.7,56.5"/>
</g>
<g>
	<path class="st4" d="M459.6,7.4l-65.9,48l-11.4-36.1c12.1-11.9,28.7-19.2,47-19.2C440.2,0.2,450.5,2.8,459.6,7.4z"/>
	<path class="st1" d="M393.7,55.7v-0.2l-11.5-36.1l0,0C394.8,7,411.6,0.1,429.3,0.1c10.7,0,21,2.4,30.4,7.3l0.2,0.1l-0.2,0.1
		L393.7,55.7z M382.4,19.5l11.4,35.8l65.6-47.8c-9.4-4.7-19.5-7.1-30.1-7.1C411.6,0.3,395,7.1,382.4,19.5z"/>
</g>
<g>
	<path d="M448.2,99.2"/>
	<path class="st0" d="M368.2,99.4c-4.7-9.2-7.4-19.6-7.4-30.7c0-18.8,7.7-35.7,20.1-47.9l11.4,36.1l-0.3,0.2l13.1,40.5l0.5,1.7"/>
</g>
<g>
	<line class="st5" x1="464" y1="7.3" x2="459.6" y2="10.4"/>
</g>
<g>
	<line class="st5" x1="498.5" y1="82.5" x2="495.6" y2="80.4"/>
</g>
<line class="st5" x1="439.3" y1="136.7" x2="438.9" y2="137.8"/>
<g>
	<line class="st5" x1="465.1" y1="58.7" x2="451.2" y2="100.8"/>
</g>
<line class="st5" x1="369.6" y1="101" x2="366.5" y2="101"/>
<g>
	<line class="st5" x1="382.3" y1="22.4" x2="381" y2="18.5"/>
</g>
<g>
	<line class="st5" x1="406.6" y1="99.1" x2="393.7" y2="58.5"/>
</g>
<path class="st4" d="M129.3,68.1c-0.1-8.6-1.2-16.8-3.3-24.6c-2.2-8.3-5.9-15.7-10.8-21.9c-5-6.3-11.4-11.2-19-14.5s-17.6-5-29.9-5
	H3.5v136.6h62.8c7.4,0,15.9-1.2,25-3.7c6.8-1.8,13.2-5.5,19.2-10.9c5.9-5.4,10.6-12.2,13.9-20.3s5-19.4,5-33.8
	C129.3,69.3,129.3,68.7,129.3,68.1z M83.9,99.4c-9.3,10.6-40.8,8.9-40.8,8.9V33.2c0,0,37-1.9,45.7,17.2
	C99.3,73.3,91.8,90.5,83.9,99.4z"/>
</svg>
